<?xml version="1.0" encoding="UTF-8"?>
<level>
  <owner>stolbitsa</owner>
  <repo>tonic-2</repo>
  <version>v1.0.5</version>
  <next number="1" owner="stolbitsa" repo="du-hast"/>
  <readme>
    <ru>5797b1c18ab439dec05fa4ed593428c94af05f448d9c51155fc45f1faa608f64</ru>
    <en>8c65717a94eef9274e7f2dae3429d52f7a82a266ca6add5f8984e3e266740869</en>
  </readme>
  <license>b1b99f5538d1fd3702219bff50c665196dfa42f6ee755c37fe41a6178d6bc6e5</license>
  <exercise number="1">
    <scale>major</scale>
    <bpm>80</bpm>
    <lowestNote>1</lowestNote>
    <tonalities>9</tonalities>
    <video name="Sea3_0.mp4" size="1195025" type="video/mp4" volume="1">888ad4a771a7a1c187f1b56f53bb73c249f6a370a150f21af51994c7e1650813</video>
    <notes>
      <note number="1" values="1,18" ticks="0" durationTicks="96" ppq="192" velocity="0.803"/>
      <note number="2" values="1,18" ticks="192" durationTicks="88" ppq="192" velocity="0.803"/>
      <note number="3" values="1,18" ticks="288" durationTicks="96" ppq="192" velocity="0.756"/>
      <note number="4" values="1,18" ticks="576" durationTicks="104" ppq="192" velocity="0.756"/>
      <note number="5" values="1,18" ticks="768" durationTicks="88" ppq="192" velocity="0.78"/>
      <note number="6" values="1,18" ticks="960" durationTicks="96" ppq="192" velocity="0.732"/>
    </notes>
  </exercise>
  <exercise number="2">
    <scale>major</scale>
    <bpm>80</bpm>
    <lowestNote>1</lowestNote>
    <tonalities>3</tonalities>
    <video name="S3-2_0.mp4" size="634475" type="video/mp4" volume="1">8405518c0ed9c6c3cf3b4508c83b6d780c5e60505c32ab8cf162f89b390211e4</video>
    <notes>
      <note number="1" values="1,18" ticks="0" durationTicks="96" ppq="192" velocity="0.803"/>
      <note number="2" values="1,18" ticks="192" durationTicks="88" ppq="192" velocity="0.803"/>
      <note number="3" values="1,18" ticks="288" durationTicks="96" ppq="192" velocity="0.756"/>
      <note number="4" values="1,18" ticks="576" durationTicks="104" ppq="192" velocity="0.756"/>
      <note number="5" values="1,18" ticks="768" durationTicks="88" ppq="192" velocity="0.78"/>
      <note number="6" values="1,18" ticks="960" durationTicks="96" ppq="192" velocity="0.732"/>
    </notes>
  </exercise>
  <exercise number="3">
    <scale>major</scale>
    <bpm>80</bpm>
    <lowestNote>1</lowestNote>
    <tonalities>1,2,3,4,5,6,7,8,9,10,11,12</tonalities>
    <video name="octaves1c.mp4" size="1082732" type="video/mp4" volume="1">301dfe6e2b364860d033a37499fd4d5c1df14bd6ea425fb16fb90e446f30a484</video>
    <notes>
      <note number="1" values="1,18" ticks="188" durationTicks="105" ppq="96" velocity="0.843"/>
      <note number="2" values="1,18" ticks="244" durationTicks="91" ppq="96" velocity="0.913"/>
      <note number="3" values="1,18" ticks="334" durationTicks="208" ppq="96" velocity="0.874"/>
      <note number="4" values="1,18" ticks="384" durationTicks="161" ppq="96" velocity="0.921"/>
    </notes>
  </exercise>
  <exercise number="4">
    <scale>major</scale>
    <bpm>80</bpm>
    <lowestNote>1</lowestNote>
    <tonalities>1,2,3,4,5,6,7,8,9,10,11,12</tonalities>
    <video name="octaves1c.mp4" size="1784672" type="video/mp4" volume="1">0f3978fd36a73c43230c8e3700bca083a92e54516c69b3f0ecaf9fa0e1d0b010</video>
    <notes>
      <note number="1" values="1,18" ticks="380" durationTicks="105" ppq="96" velocity="0.843"/>
      <note number="2" values="1,18" ticks="436" durationTicks="91" ppq="96" velocity="0.913"/>
      <note number="3" values="1,18" ticks="526" durationTicks="208" ppq="96" velocity="0.874"/>
      <note number="4" values="1,18" ticks="576" durationTicks="161" ppq="96" velocity="0.921"/>
    </notes>
  </exercise>
  <exercise number="5">
    <scale>major</scale>
    <bpm>80</bpm>
    <lowestNote>1</lowestNote>
    <tonalities>1,2,3,4,5,6,7,8,9,10,11,12</tonalities>
    <video name="NewYork1.mp4" size="1514144" type="video/mp4" volume="1">f7cd5e3d69276fbfcacaaceb0ca3c6b8ccb8ae8b6ff205d5509a5f334cfc4c3e</video>
    <notes>
      <note number="1" values="1,18" ticks="188" durationTicks="105" ppq="96" velocity="0.843"/>
      <note number="2" values="1,18" ticks="244" durationTicks="91" ppq="96" velocity="0.913"/>
      <note number="3" values="1,18" ticks="334" durationTicks="208" ppq="96" velocity="0.874"/>
      <note number="4" values="1,18" ticks="384" durationTicks="161" ppq="96" velocity="0.921"/>
    </notes>
  </exercise>
  <exercise number="6">
    <scale>major</scale>
    <bpm>80</bpm>
    <lowestNote>1</lowestNote>
    <tonalities>3</tonalities>
    <video name="S3-3_0.mp4" size="815450" type="video/mp4" volume="1">df4055a9647c2a97d4c06bacf2caf438e42b80864af78dfbd38975ed3a380f24</video>
    <notes>
      <note number="1" values="1,18" ticks="0" durationTicks="96" ppq="192" velocity="0.803"/>
      <note number="2" values="1,18" ticks="192" durationTicks="88" ppq="192" velocity="0.803"/>
      <note number="3" values="1,18" ticks="288" durationTicks="96" ppq="192" velocity="0.756"/>
      <note number="4" values="1,18" ticks="576" durationTicks="104" ppq="192" velocity="0.756"/>
      <note number="5" values="1,18" ticks="768" durationTicks="88" ppq="192" velocity="0.78"/>
      <note number="6" values="1,18" ticks="960" durationTicks="96" ppq="192" velocity="0.732"/>
      <note number="7" values="1,18" ticks="1061" durationTicks="104" ppq="192" velocity="0.78"/>
    </notes>
  </exercise>
  <exercise number="7">
    <scale>major</scale>
    <bpm>80</bpm>
    <lowestNote>1</lowestNote>
    <tonalities>1,2,3,4,5,6,7,8,9,10,11,12</tonalities>
    <video name="Fireworks2_1.mp4" size="395626" type="video/mp4" volume="1">7f947b2c8361b5957aa04c5840e1a7e037269e5cdb901da888176d73f0c933b5</video>
    <notes>
      <note number="1" values="1,18" ticks="188" durationTicks="105" ppq="96" velocity="0.843"/>
      <note number="2" values="1,18" ticks="244" durationTicks="91" ppq="96" velocity="0.913"/>
      <note number="3" values="1,18" ticks="334" durationTicks="208" ppq="96" velocity="0.874"/>
      <note number="4" values="1,18" ticks="384" durationTicks="161" ppq="96" velocity="0.921"/>
    </notes>
  </exercise>
  <exercise number="8">
    <scale>minor</scale>
    <bpm>80</bpm>
    <lowestNote>1</lowestNote>
    <tonalities>1</tonalities>
    <video name="S3-4_0.mp4" size="508688" type="video/mp4" volume="1">1cebc620ee43f1d48efc404a8657610891ee685426112c39137c85b7b42b7cfb</video>
    <notes>
      <note number="1" values="1,18" ticks="0" durationTicks="96" ppq="192" velocity="0.803"/>
      <note number="2" values="1,18" ticks="192" durationTicks="88" ppq="192" velocity="0.803"/>
      <note number="3" values="1,18" ticks="288" durationTicks="96" ppq="192" velocity="0.756"/>
      <note number="4" values="1,18" ticks="576" durationTicks="104" ppq="192" velocity="0.756"/>
      <note number="5" values="1,18" ticks="768" durationTicks="88" ppq="192" velocity="0.78"/>
      <note number="6" values="1,18" ticks="960" durationTicks="96" ppq="192" velocity="0.732"/>
      <note number="7" values="1,18" ticks="1057" durationTicks="191" ppq="192" velocity="0.732"/>
    </notes>
  </exercise>
  <exercise number="9">
    <scale>minor</scale>
    <bpm>126</bpm>
    <lowestNote>1</lowestNote>
    <tonalities>1,2,3,4,5,6,7,8,9,10,11,12</tonalities>
    <video name="Fireworks2DM_1.mp4" size="402733" type="video/mp4" volume="1">18f9ecfaf16bd444f9ea2e2d882bd97ea5619ec9b082b3bcd44a4b2111381a98</video>
    <notes>
      <note number="1" values="1,18" ticks="96" durationTicks="96" ppq="192" velocity="0.802"/>
      <note number="2" values="1,18" ticks="192" durationTicks="88" ppq="192" velocity="0.729"/>
      <note number="3" values="1,18" ticks="288" durationTicks="190" ppq="192" velocity="0.864"/>
      <note number="4" values="1,18" ticks="479" durationTicks="104" ppq="192" velocity="0.756"/>
      <note number="5" values="1,18" ticks="578" durationTicks="88" ppq="192" velocity="0.78"/>
      <note number="6" values="1,18" ticks="672" durationTicks="197" ppq="192" velocity="0.732"/>
    </notes>
  </exercise>
  <exercise number="10">
    <scale>major</scale>
    <bpm>80</bpm>
    <lowestNote>1</lowestNote>
    <tonalities>1,2,3,4,5,6,7,8,9,10,11,12</tonalities>
    <video name="Fireworks22_1.mp4" size="755290" type="video/mp4" volume="1">42f3e9f5624cd3dba3151547ded2e7e4a108aa0ae22e868026c651d9017eb5cf</video>
    <notes>
      <note number="1" values="1,18" ticks="188" durationTicks="105" ppq="96" velocity="0.843"/>
      <note number="2" values="1,18" ticks="244" durationTicks="91" ppq="96" velocity="0.913"/>
      <note number="3" values="1,18" ticks="334" durationTicks="208" ppq="96" velocity="0.874"/>
      <note number="4" values="1,18" ticks="384" durationTicks="161" ppq="96" velocity="0.921"/>
    </notes>
  </exercise>
  <exercise number="11">
    <scale>major</scale>
    <bpm>80</bpm>
    <lowestNote>1</lowestNote>
    <tonalities>1,2,3,4,5,6,7,8,9,10,11,12</tonalities>
    <video name="dance_1.mp4" size="1142227" type="video/mp4" volume="1">9b96c6c4e1ff202d61af432264eb331c2fc6d2fc853e609843f9f5dfceaeeca3</video>
    <notes>
      <note number="1" values="1,18" ticks="188" durationTicks="105" ppq="96" velocity="0.843"/>
      <note number="2" values="1,18" ticks="244" durationTicks="91" ppq="96" velocity="0.913"/>
      <note number="3" values="1,18" ticks="334" durationTicks="208" ppq="96" velocity="0.874"/>
      <note number="4" values="1,18" ticks="384" durationTicks="161" ppq="96" velocity="0.921"/>
    </notes>
  </exercise>
</level>
